<svg width="23" height="23" viewBox="0 0 23 23" fill="none" xmlns="http://www.w3.org/2000/svg">
<g clip-path="url(#clip0)">
<path d="M22.5208 22.0417H0.479182C0.214682 22.0417 0 22.2563 0 22.5208C0 22.7853 0.214682 23 0.479182 23H22.5209C22.7854 23 23 22.7853 23 22.5208C23 22.2563 22.7853 22.0417 22.5208 22.0417Z" fill="black"/>
<path d="M4.31243 16.2917H1.43743C1.17293 16.2917 0.958252 16.5064 0.958252 16.7709V22.5209C0.958252 22.7853 1.17293 23 1.43743 23H4.31243C4.57693 23 4.79162 22.7853 4.79162 22.5208V16.7708C4.79162 16.5063 4.57693 16.2917 4.31243 16.2917ZM3.83325 22.0417H1.91662V17.25H3.8333V22.0417H3.83325Z" fill="black"/>
<path d="M10.0624 11.5H7.18743C6.92293 11.5 6.70825 11.7147 6.70825 11.9792V22.5209C6.70825 22.7854 6.92293 23 7.18743 23H10.0624C10.3269 23 10.5416 22.7854 10.5416 22.5209V11.9792C10.5416 11.7147 10.3269 11.5 10.0624 11.5ZM9.58325 22.0417H7.66657V12.4583H9.58325V22.0417Z" fill="black"/>
<path d="M15.8124 13.4167H12.9374C12.6729 13.4167 12.4583 13.6314 12.4583 13.8959V22.5209C12.4583 22.7854 12.6729 23 12.9374 23H15.8124C16.0769 23 16.2916 22.7854 16.2916 22.5209V13.8959C16.2916 13.6313 16.0769 13.4167 15.8124 13.4167ZM15.3333 22.0417H13.4166V14.375H15.3333V22.0417V22.0417Z" fill="black"/>
<path d="M21.5624 7.66668H18.6874C18.4229 7.66668 18.2083 7.88136 18.2083 8.14586V22.5209C18.2083 22.7854 18.4229 23.0001 18.6874 23.0001H21.5624C21.8269 23.0001 22.0416 22.7854 22.0416 22.5209V8.14586C22.0416 7.88132 21.8269 7.66668 21.5624 7.66668ZM21.0833 22.0417H19.1666V8.625H21.0833V22.0417V22.0417Z" fill="black"/>
<path d="M2.87493 8.625C1.81788 8.625 0.958252 9.48463 0.958252 10.5417C0.958252 11.5987 1.81788 12.4584 2.87493 12.4584C3.93199 12.4584 4.79162 11.5987 4.79162 10.5417C4.79162 9.48463 3.93199 8.625 2.87493 8.625ZM2.87493 11.5C2.34593 11.5 1.91662 11.0697 1.91662 10.5417C1.91662 10.0136 2.34593 9.58336 2.87493 9.58336C3.40393 9.58336 3.83325 10.0137 3.83325 10.5417C3.83325 11.0697 3.40393 11.5 2.87493 11.5Z" fill="black"/>
<path d="M8.62493 3.83332C7.56788 3.83332 6.70825 4.69294 6.70825 5.75C6.70825 6.80705 7.56788 7.66668 8.62493 7.66668C9.68199 7.66668 10.5416 6.80705 10.5416 5.75C10.5416 4.69294 9.68199 3.83332 8.62493 3.83332ZM8.62493 6.70832C8.09593 6.70832 7.66662 6.27801 7.66662 5.75C7.66662 5.22194 8.09593 4.79168 8.62493 4.79168C9.15393 4.79168 9.58325 5.22199 9.58325 5.75C9.58325 6.27805 9.15393 6.70832 8.62493 6.70832Z" fill="black"/>
<path d="M14.3749 5.75C13.3179 5.75 12.4583 6.60963 12.4583 7.66668C12.4583 8.72374 13.3179 9.58336 14.3749 9.58336C15.432 9.58336 16.2916 8.72374 16.2916 7.66668C16.2916 6.60963 15.432 5.75 14.3749 5.75ZM14.3749 8.625C13.8459 8.625 13.4166 8.19469 13.4166 7.66668C13.4166 7.13863 13.8459 6.70836 14.3749 6.70836C14.9039 6.70836 15.3333 7.13867 15.3333 7.66668C15.3333 8.19469 14.9039 8.625 14.3749 8.625Z" fill="black"/>
<path d="M20.1249 0C19.0679 0 18.2083 0.859625 18.2083 1.91668C18.2083 2.97374 19.0679 3.83336 20.1249 3.83336C21.182 3.83336 22.0416 2.97374 22.0416 1.91668C22.0416 0.859625 21.182 0 20.1249 0ZM20.1249 2.875C19.5959 2.875 19.1666 2.44469 19.1666 1.91668C19.1666 1.38862 19.5959 0.958363 20.1249 0.958363C20.6539 0.958363 21.0833 1.38867 21.0833 1.91668C21.0833 2.44469 20.6539 2.875 20.1249 2.875Z" fill="black"/>
<path d="M19.4484 2.59325C19.2615 2.40638 18.9577 2.40638 18.7708 2.59325L15.0525 6.31157C14.8656 6.49844 14.8656 6.80225 15.0525 6.98913C15.1464 7.08207 15.2691 7.12906 15.3918 7.12906C15.5135 7.12906 15.6361 7.08306 15.7301 6.98913L19.4484 3.27081C19.6353 3.08393 19.6353 2.78013 19.4484 2.59325Z" fill="black"/>
<path d="M13.2164 6.56075L10.1382 5.68293C9.88042 5.60818 9.61879 5.75768 9.54692 6.01261C9.4741 6.26754 9.62167 6.53204 9.87561 6.60486L12.9538 7.48268C12.9979 7.49512 13.042 7.50087 13.0851 7.50087C13.294 7.50087 13.4857 7.36382 13.546 7.153C13.6189 6.89906 13.4713 6.63357 13.2164 6.56075Z" fill="black"/>
<path d="M7.87751 6.34706C7.71269 6.14006 7.41176 6.1065 7.20476 6.27038L3.59182 9.15113C3.38482 9.31693 3.35032 9.61782 3.51613 9.82482C3.61101 9.94364 3.75094 10.005 3.89082 10.005C3.99527 10.005 4.1007 9.9705 4.18888 9.9015L7.80181 7.02075C8.00881 6.85494 8.04331 6.55406 7.87751 6.34706Z" fill="black"/>
</g>
<defs>
<clipPath id="clip0">
<rect width="23" height="23" fill="white"/>
</clipPath>
</defs>
</svg>
