<?xml version="1.0" encoding="utf-8"?>
<!-- Generator: Adobe Illustrator 25.1.0, SVG Export Plug-In . SVG Version: 6.00 Build 0)  -->
<svg version="1.1" id="Capa_1" xmlns="http://www.w3.org/2000/svg" xmlns:xlink="http://www.w3.org/1999/xlink" x="0px" y="0px"
	 viewBox="0 0 50 50" style="enable-background:new 0 0 50 50;" xml:space="preserve">
<g>
	<g>
		<g>
			<path d="M44.8,6.7h-3.2V4.2C41.6,3.5,41,3,40.3,3C39.7,3,39,3.6,39,4.2v2.4H26.3V4.2C26.3,3.5,25.6,3,25,3
				c-0.7,0-1.3,0.6-1.3,1.3v2.4H10.9V4.2c0-0.7-0.6-1.3-1.3-1.3C8.9,3,8.2,3.5,8.2,4.2v2.4h-3C2.3,6.7,0,9.1,0,11.9v30
				C0,44.7,2.3,47,5.2,47h39.6c2.9,0,5.2-2.3,5.2-5.2v-30C50,9.1,47.7,6.7,44.8,6.7z M47.4,41.9c0,1.4-1.2,2.5-2.6,2.5l0,0H5.2
				c-1.4,0-2.6-1.2-2.6-2.5l0,0v-30c0-1.5,1.2-2.6,2.6-2.6h3v1.9c0,0.7,0.6,1.3,1.3,1.3c0.6,0,1.3-0.6,1.3-1.3V9.3h12.9v1.9
				c0,0.7,0.6,1.3,1.3,1.3c0.7,0,1.3-0.6,1.3-1.3V9.3h12.8v1.9c0,0.7,0.6,1.3,1.3,1.3c0.6,0,1.3-0.6,1.3-1.3V9.3h3.2
				c1.5,0,2.6,1.3,2.6,2.6L47.4,41.9L47.4,41.9z"/>
		</g>
	</g>
	<g>
		<g>
			<path d="M21.6,17.6h-2.2c-0.7,0-1.3,0.6-1.3,1.3c0,0.6,0.6,1.3,1.3,1.3h2.2c0.7,0,1.3-0.6,1.3-1.3C22.9,18.2,22.3,17.6,21.6,17.6
				z"/>
		</g>
	</g>
	<g>
		<g>
			<path d="M30.6,17.6h-2.2c-0.7,0-1.3,0.6-1.3,1.3c0,0.6,0.6,1.3,1.3,1.3h2.2c0.7,0,1.3-0.6,1.3-1.3C31.9,18.2,31.4,17.6,30.6,17.6
				z"/>
		</g>
	</g>
	<g>
		<g>
			<path d="M39.8,17.6h-2.2c-0.7,0-1.3,0.6-1.3,1.3c0,0.6,0.6,1.3,1.3,1.3h2.2c0.7,0,1.3-0.6,1.3-1.3C41.1,18.2,40.5,17.6,39.8,17.6
				z"/>
		</g>
	</g>
	<g>
		<g>
			<path d="M21.6,26.5h-2.2c-0.7,0-1.3,0.6-1.3,1.3c0,0.6,0.6,1.3,1.3,1.3h2.2c0.7,0,1.3-0.6,1.3-1.3C22.9,27.2,22.3,26.5,21.6,26.5
				z"/>
		</g>
	</g>
	<g>
		<g>
			<path d="M12.4,26.5h-2.3c-0.7,0-1.3,0.6-1.3,1.3c0,0.6,0.6,1.3,1.3,1.3h2.2c0.7,0,1.3-0.6,1.3-1.3C13.6,27.2,13.2,26.5,12.4,26.5
				z"/>
		</g>
	</g>
	<g>
		<g>
			<path d="M30.6,26.5h-2.2c-0.7,0-1.3,0.6-1.3,1.3c0,0.6,0.6,1.3,1.3,1.3h2.2c0.7,0,1.3-0.6,1.3-1.3C31.9,27.2,31.4,26.5,30.6,26.5
				z"/>
		</g>
	</g>
	<g>
		<g>
			<path d="M39.8,26.5h-2.2c-0.7,0-1.3,0.6-1.3,1.3c0,0.6,0.6,1.3,1.3,1.3h2.2c0.7,0,1.3-0.6,1.3-1.3C41.1,27.2,40.5,26.5,39.8,26.5
				z"/>
		</g>
	</g>
	<g>
		<g>
			<path d="M21.6,35.3h-2.2c-0.7,0-1.3,0.6-1.3,1.3c0,0.7,0.6,1.3,1.3,1.3h2.2c0.7,0,1.3-0.6,1.3-1.3C22.9,35.9,22.3,35.3,21.6,35.3
				z"/>
		</g>
	</g>
	<g>
		<g>
			<path d="M12.4,35.3h-2.3c-0.7,0-1.3,0.6-1.3,1.3c0,0.7,0.6,1.3,1.3,1.3h2.2c0.7,0,1.3-0.6,1.3-1.3C13.7,35.9,13.2,35.3,12.4,35.3
				z"/>
		</g>
	</g>
	<g>
		<g>
			<path d="M30.6,35.3h-2.2c-0.7,0-1.3,0.6-1.3,1.3c0,0.7,0.6,1.3,1.3,1.3h2.2c0.7,0,1.3-0.6,1.3-1.3C31.9,35.9,31.4,35.3,30.6,35.3
				z"/>
		</g>
	</g>
</g>
</svg>
