<?xml version="1.0" encoding="utf-8"?>
<!-- Generator: Adobe Illustrator 25.1.0, SVG Export Plug-In . SVG Version: 6.00 Build 0)  -->
<svg version="1.1" id="Capa_1" xmlns="http://www.w3.org/2000/svg" xmlns:xlink="http://www.w3.org/1999/xlink" x="0px" y="0px"
	 viewBox="0 0 50 50" style="enable-background:new 0 0 50 50;" xml:space="preserve">
<g>
	<g>
		<g>
			<path d="M25.1,8.7c-4.2,0-7.6,3.5-7.6,7.6s3.5,7.6,7.6,7.6s7.6-3.5,7.6-7.6S29.3,8.7,25.1,8.7z M25.1,21.8c-3,0-5.4-2.4-5.4-5.4
				s2.4-5.4,5.4-5.4s5.4,2.4,5.4,5.4S28.1,21.8,25.1,21.8z"/>
		</g>
	</g>
	<g>
		<g>
			<path d="M40.4,17.4c-3,0-5.4,2.4-5.4,5.4s2.4,5.4,5.4,5.4c3,0,5.4-2.4,5.4-5.4S43.4,17.4,40.4,17.4z M40.4,26
				c-1.8,0-3.2-1.5-3.2-3.2c0-1.8,1.5-3.2,3.2-3.2s3.2,1.5,3.2,3.2C43.6,24.6,42.1,26,40.4,26z"/>
		</g>
	</g>
	<g>
		<g>
			<path d="M10,17.4c-3,0-5.4,2.4-5.4,5.4S7,28.2,10,28.2s5.4-2.4,5.4-5.4S13,17.4,10,17.4z M10,26c-1.8,0-3.2-1.5-3.2-3.2
				c0-1.8,1.5-3.2,3.2-3.2s3.2,1.5,3.2,3.2C13.3,24.6,11.8,26,10,26z"/>
		</g>
	</g>
	<g>
		<g>
			<path d="M25.1,26c-7.8,0-14.2,6.4-14.2,14.2c0,0.6,0.5,1,1,1s1-0.5,1-1c0-6.6,5.3-12,12-12s12,5.3,12,12c0,0.6,0.5,1,1,1
				c0.6,0,1-0.5,1-1C39.3,32.4,32.9,26,25.1,26z"/>
		</g>
	</g>
	<g>
		<g>
			<path d="M40.4,30.4c-1.8,0-3.6,0.5-5.1,1.5c-0.5,0.3-0.6,0.9-0.4,1.5c0.3,0.5,0.9,0.6,1.5,0.4c1.2-0.7,2.5-1.2,4-1.2
				c4.2,0,7.6,3.5,7.6,7.6c0,0.6,0.5,1,1,1c0.6,0,1-0.5,1-1C50.2,34.8,45.8,30.4,40.4,30.4z"/>
		</g>
	</g>
	<g>
		<g>
			<path d="M15,31.9c-1.6-0.9-3.2-1.5-5.1-1.5c-5.4,0-9.8,4.4-9.8,9.8c0,0.6,0.5,1,1,1s1-0.5,1-1c0-4.2,3.5-7.6,7.6-7.6
				c1.4,0,2.7,0.4,4,1.2c0.5,0.3,1.2,0.1,1.5-0.4C15.5,32.8,15.5,32.2,15,31.9z"/>
		</g>
	</g>
</g>
</svg>
