<?xml version="1.0" encoding="utf-8"?>
<!-- Generator: Adobe Illustrator 25.2.1, SVG Export Plug-In . SVG Version: 6.00 Build 0)  -->
<svg version="1.1" id="Capa_1" xmlns="http://www.w3.org/2000/svg" xmlns:xlink="http://www.w3.org/1999/xlink" x="0px" y="0px"
	 viewBox="0 0 305 305" style="enable-background:new 0 0 305 305;" xml:space="preserve">
<style type="text/css">
	.st0{stroke:#000000;stroke-width:2;stroke-miterlimit:10;}
</style>
<g>
	<g>
		<path d="M152.5,0C68.4,0,0,68.4,0,152.5S68.4,305,152.5,305c84.1,0,152.5-68.4,152.5-152.5S236.6,0,152.5,0z M152.5,276
			C84.4,276,29,220.6,29,152.5C29,84.4,84.4,29,152.5,29C220.6,29,276,84.4,276,152.5C276,220.6,220.6,276,152.5,276z"/>
		<path class="st0" d="M218.5,94l-90.5,90.5l-41.4-41.4c-4.9-4.9-12.8-4.9-17.7,0c-4.9,4.9-4.9,12.8,0,17.7l50.2,50.2
			c2.4,2.4,5.6,3.7,8.8,3.7c3.2,0,6.4-1.2,8.8-3.7l99.4-99.4c4.9-4.9,4.9-12.8,0-17.7C231.3,89.1,223.4,89.1,218.5,94z"/>
	</g>
</g>
</svg>
