<svg id="_x31_" height="512" viewBox="0 0 24 24" width="512" xmlns="http://www.w3.org/2000/svg"><path d="m9.787 18.999c-.632 0-1.271-.132-1.878-.398-1.291-.566-2.264-1.649-2.669-2.972-.629-2.056.004-4.166 1.652-5.504.66-.535 1.672-1.234 2.846-1.11.281.029.531.198.669.452.147.272.15.6.008.876-.079.156-.142.302-.188.444 1.175-.898 2.907-1.654 4.938-1.544.323.018.601.204.743.497.146.302.116.662-.08.939-.627.893-.819 1.922-1.022 3.012-.324 1.74-.692 3.712-3.133 4.884-.589.282-1.234.424-1.886.424zm-.32-8.999c-.567 0-1.19.29-1.944.9-1.346 1.093-1.841 2.751-1.325 4.435.319 1.044 1.09 1.9 2.113 2.349.967.423 2.034.418 2.929-.012 1.983-.952 2.262-2.441 2.583-4.166.205-1.101.418-2.238 1.101-3.274-2.241-.075-4 1.07-4.87 2.074-.128.148-.331.209-.518.152-.187-.054-.325-.212-.354-.405-.119-.774-.036-1.378.288-2.053-.001 0-.002 0-.003 0z"/><path d="m9.5 24c-.669 0-1.297-.26-1.769-.733l-6.999-7c-.472-.471-.732-1.099-.732-1.767 0-.642.243-1.252.684-1.718l11.277-11.69c.654-.693 1.581-1.092 2.539-1.092h7c1.379 0 2.5 1.122 2.5 2.5v7c0 .957-.398 1.883-1.093 2.541l-11.686 11.272c-.47.444-1.079.687-1.721.687zm5-23c-.694 0-1.34.278-1.816.782l-11.277 11.691c-.261.276-.407.642-.407 1.027 0 .401.156.777.439 1.06l7 7c.555.556 1.521.57 2.091.029l11.685-11.27c.001-.001.002-.002.003-.003.505-.477.782-1.122.782-1.816v-7c0-.827-.673-1.5-1.5-1.5z"/><path d="m19 7c-1.103 0-2-.897-2-2s.897-2 2-2 2 .897 2 2-.897 2-2 2zm0-3c-.552 0-1 .449-1 1s.448 1 1 1 1-.449 1-1-.448-1-1-1z"/></svg>