<?xml version="1.0" encoding="utf-8"?>
<!-- Generator: Adobe Illustrator 25.1.0, SVG Export Plug-In . SVG Version: 6.00 Build 0)  -->
<svg version="1.1" id="Layer_1" xmlns="http://www.w3.org/2000/svg" xmlns:xlink="http://www.w3.org/1999/xlink" x="0px" y="0px"
	 viewBox="0 0 50 50" style="enable-background:new 0 0 50 50;" xml:space="preserve">
<path d="M48.7,21.7L48.7,21.7L28.3,1.4C27.4,0.5,26.3,0,25,0c-1.3,0-2.4,0.5-3.3,1.4L1.3,21.7l0,0c-1.8,1.8-1.8,4.7,0,6.5
	c0.8,0.8,1.9,1.3,3.1,1.4h0.1h0.8v14.9c0,2.9,2.4,5.4,5.4,5.4h7.9c0.8,0,1.5-0.6,1.5-1.5V36.7c0-1.4,1.1-2.4,2.4-2.4h4.8
	c1.4,0,2.4,1.1,2.4,2.4v11.8c0,0.8,0.6,1.5,1.5,1.5h8c3,0,5.4-2.4,5.4-5.4V29.6h0.7c1.3,0,2.4-0.5,3.3-1.4
	C50.4,26.4,50.4,23.5,48.7,21.7z M46.6,26.1c-0.3,0.3-0.7,0.5-1.2,0.5h-2.2c-0.8,0-1.5,0.6-1.5,1.5v16.4c0,1.4-1.1,2.4-2.4,2.4h-6.5
	V36.6c0-2.9-2.4-5.4-5.4-5.4h-4.8c-3,0-5.4,2.4-5.4,5.4v10.3h-6.5c-1.4,0-2.4-1.1-2.4-2.4V28.1c0-0.8-0.6-1.5-1.5-1.5H4.6
	c0,0,0,0-0.1,0c-0.4,0-0.8-0.2-1.2-0.5c-0.6-0.6-0.6-1.7,0-2.3l0,0l0,0L23.8,3.4c0.3-0.3,0.7-0.5,1.2-0.5c0.4,0,0.8,0.2,1.2,0.5
	l20.4,20.3l0,0C47.3,24.4,47.3,25.5,46.6,26.1z"/>
</svg>
