<?xml version="1.0" encoding="utf-8"?>
<!-- Generator: Adobe Illustrator 25.1.0, SVG Export Plug-In . SVG Version: 6.00 Build 0)  -->
<svg version="1.1" id="Layer_1" xmlns="http://www.w3.org/2000/svg" xmlns:xlink="http://www.w3.org/1999/xlink" x="0px" y="0px"
	 viewBox="0 0 50 50" style="enable-background:new 0 0 50 50;" xml:space="preserve">
<g>
	<path d="M45.6,8.6H4.4L0,17.5h4v23.9h42V17.5h4L45.6,8.6z M44.2,10.9l2.2,4.4H29l-2.2-4.4C26.7,10.9,44.2,10.9,44.2,10.9z
		 M5.8,10.9h17.4L21,15.3H3.6L5.8,10.9z M43.8,39.1H26.1V28.4h-2.2v10.7H6.2V17.5h16.1l1.5-3.1v9.7H26v-9.7l1.5,3.1h16.1v21.6H43.8
		L43.8,39.1z"/>
	<path d="M8.4,30.3H15v2.2H8.4V30.3z"/>
	<path d="M8.4,34.7H15V37H8.4V34.7z"/>
	<path d="M17.3,34.7h2.2V37h-2.2V34.7z"/>
</g>
</svg>
