<?xml version="1.0" encoding="utf-8"?>
<!-- Generator: Adobe Illustrator 25.2.1, SVG Export Plug-In . SVG Version: 6.00 Build 0)  -->
<svg version="1.1" id="Layer_1" xmlns="http://www.w3.org/2000/svg" xmlns:xlink="http://www.w3.org/1999/xlink" x="0px" y="0px"
	 viewBox="0 0 193.8 193.8" style="enable-background:new 0 0 193.8 193.8;" xml:space="preserve">
<style type="text/css">
	.st0{stroke:#000000;stroke-width:3;stroke-miterlimit:10;}
	.st1{stroke:#000000;stroke-miterlimit:10;}
</style>
<g>
	<g>
		<g>
			<path class="st0" d="M179.9,86.8L168,88.2c-0.9,0.1-1.5,0.9-1.4,1.8c2.4,24.8-8.5,49.1-28.7,63.7c-15.2,11-33.7,15.3-52.2,12.4
				c-18.5-3-34.7-13-45.6-28.1c-22.6-31.3-15.5-75.2,15.8-97.8C71,29.1,89.5,24.7,108,27.7c16.1,2.6,30.5,10.6,41.2,22.6l-19.1,0.4
				l0.3,13.5l30.1-0.6l0,0l13.5-0.3l-0.3-13.5l0,0l-0.6-30.1L159.6,20l0.4,19.6c-12.9-14.3-30.3-23.8-49.6-26.9
				c-22.5-3.6-45,1.7-63.5,15.1C8.8,55.3,0.2,108.7,27.7,146.8c2.7,3.7,5.6,7.1,8.7,10.3c12.6,12.7,28.8,21.1,46.8,24
				c22.5,3.6,45-1.7,63.5-15.1c24.7-17.8,38-47.5,34.9-77.8C181.6,87.3,180.8,86.7,179.9,86.8z"/>
			<path class="st1" d="M105.3,139.6L105.3,139.6L105.3,139.6l0-9.1c10.8-1.2,21.3-8,21.3-21c0-17.6-16.4-19.6-28.3-21.1
				c-7.6-0.9-13.5-2-13.5-6.6c0-6.4,9.1-7.1,13-7.1c5.8,0,12,2.7,14.1,6.2l0.6,1l12-5.6l-0.6-1.2c-4.5-9.2-12.5-11.8-18.6-12.9v-8
				H91.2v8c-13.1,1.9-20.9,9.2-20.9,19.6c0,17,15.4,18.7,26.6,19.9c10,1.2,14.7,3.7,14.7,7.8c0,7.9-10.9,8.5-14.2,8.5
				c-7.4,0-14.6-3.7-16.7-8.6l-0.5-1.2l-13.1,5.5l0.5,1.2c3.9,9,12.2,14.7,23.6,16.1v8.7H105.3z"/>
		</g>
	</g>
</g>
</svg>
