<?xml version="1.0" encoding="utf-8"?>
<!-- Generator: Adobe Illustrator 25.1.0, SVG Export Plug-In . SVG Version: 6.00 Build 0)  -->
<svg version="1.1" id="Capa_1" xmlns="http://www.w3.org/2000/svg" xmlns:xlink="http://www.w3.org/1999/xlink" x="0px" y="0px"
	 viewBox="0 0 50 50" style="enable-background:new 0 0 50 50;" xml:space="preserve">
<g>
	<g>
		<g>
			<path d="M39.7,6.4h-4.5V4.5c0-0.6-0.8-1-1.4-1h-3.5C29.4,1.2,27.4,0,24.9,0c-2.4-0.1-4.5,1.4-5.4,3.5h-3.4c-0.6,0-1.3,0.3-1.3,1
				v2h-4.5c-2.7,0-4.9,2.1-5,4.8v34.2c0,2.6,2.4,4.5,5,4.5h29.4c2.6,0,5-1.9,5-4.5V11.4C44.6,8.6,42.4,6.5,39.7,6.4z M17.3,5.9h3.3
				c0.5-0.1,1.1-0.5,1.2-1.1c0.3-1.5,1.7-2.7,3.3-2.7c1.6,0,2.9,1.2,3.2,2.7c0.1,0.5,0.6,1.1,1.2,1.1h3.4v4.8H17.3V5.9z M42.3,45.5
				c0,1.3-1.3,2.1-2.6,2.1H10.3c-1.3,0-2.6-0.9-2.6-2.1V11.4c0.1-1.4,1.2-2.5,2.6-2.5h4.5v3c0.1,0.6,0.6,1.2,1.3,1.2h17.6
				c0.6,0,1.3-0.4,1.4-1.2v-3h4.5c1.4,0,2.5,1.1,2.6,2.5L42.3,45.5L42.3,45.5z"/>
			<path d="M20.4,26.6c-0.4-0.4-1.2-0.5-1.7-0.1l-3.9,3.6l-1.6-1.7c-0.4-0.4-1.2-0.5-1.7-0.1c-0.4,0.5-0.4,1.3,0,1.7l2.5,2.5
				c0.2,0.2,0.5,0.3,0.9,0.3c0.3,0,0.6-0.1,0.9-0.3l4.6-4.4C20.8,27.8,20.9,27.1,20.4,26.6C20.5,26.6,20.4,26.6,20.4,26.6z"/>
			<path d="M37.5,29.1H23.8c-0.6,0-1.2,0.5-1.2,1.2c0,0.6,0.5,1.2,1.2,1.2h13.7c0.6,0,1.2-0.5,1.2-1.2
				C38.7,29.7,38.2,29.1,37.5,29.1z"/>
			<path d="M20.4,17c-0.4-0.4-1.2-0.5-1.7-0.1l-3.9,3.6l-1.6-1.7c-0.4-0.4-1.2-0.5-1.7-0.1c-0.4,0.5-0.4,1.3,0,1.7l2.5,2.5
				c0.2,0.2,0.5,0.3,0.9,0.3c0.3,0,0.6-0.1,0.9-0.3l4.6-4.4C20.8,18.3,20.9,17.6,20.4,17C20.5,17,20.4,17,20.4,17z"/>
			<path d="M37.5,19.6H23.8c-0.6,0-1.2,0.5-1.2,1.2c0,0.6,0.5,1.2,1.2,1.2h13.7c0.6,0,1.2-0.5,1.2-1.2
				C38.7,20.1,38.2,19.6,37.5,19.6z"/>
			<path d="M20.4,36.1c-0.4-0.4-1.2-0.5-1.7-0.1l-3.9,3.6l-1.6-1.7c-0.4-0.4-1.2-0.5-1.7-0.1c-0.4,0.5-0.4,1.3,0,1.7L14,42
				c0.2,0.2,0.5,0.3,0.9,0.3c0.3,0,0.6-0.1,0.9-0.3l4.6-4.4C20.8,37.4,20.9,36.6,20.4,36.1C20.5,36.2,20.4,36.1,20.4,36.1z"/>
			<path d="M37.5,38.7H23.8c-0.6,0-1.2,0.5-1.2,1.2c0,0.6,0.5,1.2,1.2,1.2h13.7c0.6,0,1.2-0.5,1.2-1.2
				C38.7,39.2,38.2,38.7,37.5,38.7z"/>
		</g>
	</g>
</g>
</svg>
