<?xml version="1.0" encoding="utf-8"?>
<!-- Generator: Adobe Illustrator 25.1.0, SVG Export Plug-In . SVG Version: 6.00 Build 0)  -->
<svg version="1.1" id="Capa_1" xmlns="http://www.w3.org/2000/svg" xmlns:xlink="http://www.w3.org/1999/xlink" x="0px" y="0px"
	 viewBox="0 0 50 50" style="enable-background:new 0 0 50 50;" xml:space="preserve">
<g>
	<path d="M10.7,8.8H1.5c-0.8,0-1.4-0.6-1.4-1.4s0.6-1.4,1.4-1.4h9.2c0.8,0,1.4,0.6,1.4,1.4S11.6,8.8,10.7,8.8z"/>
	<path d="M16,14c-3.7,0-6.7-3-6.7-6.7s3-6.7,6.7-6.7s6.7,3,6.7,6.7S19.7,14,16,14z M16,3.5c-2.1,0-3.8,1.7-3.8,3.8s1.7,3.8,3.8,3.8
		s3.8-1.7,3.8-3.8S18.1,3.5,16,3.5z"/>
	<path d="M48.5,8.8H26.5c-0.8,0-1.4-0.6-1.4-1.4s0.6-1.4,1.4-1.4h21.9c0.8,0,1.4,0.6,1.4,1.4S49.2,8.8,48.5,8.8z"/>
	<path d="M35.6,31.7c-3.7,0-6.7-3-6.7-6.7s3-6.7,6.7-6.7s6.7,3,6.7,6.7S39.4,31.7,35.6,31.7z M35.6,21.2c-2.1,0-3.8,1.7-3.8,3.8
		s1.7,3.8,3.8,3.8s3.8-1.8,3.8-3.8S37.7,21.2,35.6,21.2z"/>
	<path d="M25.1,26.4H1.5c-0.8,0-1.4-0.6-1.4-1.4c0-0.8,0.6-1.4,1.4-1.4H25c0.8,0,1.4,0.6,1.4,1.4C26.4,25.8,25.9,26.4,25.1,26.4z"/>
	<path d="M48.5,26.4h-7.5c-0.8,0-1.4-0.6-1.4-1.4c0-0.8,0.6-1.4,1.4-1.4h7.5c0.8,0,1.4,0.6,1.4,1.4C49.9,25.8,49.2,26.4,48.5,26.4z"
		/>
	<path d="M14.4,49.4c-3.7,0-6.7-3-6.7-6.7c0-3.7,3-6.7,6.7-6.7s6.7,3,6.7,6.7S18.1,49.4,14.4,49.4z M14.4,38.9
		c-2.1,0-3.8,1.7-3.8,3.8s1.7,3.8,3.8,3.8s3.8-1.7,3.8-3.8S16.4,38.9,14.4,38.9z"/>
	<path d="M48.5,44.1H24.9c-0.8,0-1.4-0.6-1.4-1.4c0-0.8,0.6-1.4,1.4-1.4h23.5c0.8,0,1.4,0.6,1.4,1.4C49.8,43.5,49.2,44.1,48.5,44.1z
		"/>
	<path d="M9.1,44.1H1.5c-0.8,0-1.4-0.6-1.4-1.4s0.6-1.4,1.4-1.4h7.5c0.8,0,1.4,0.6,1.4,1.4C10.5,43.5,9.9,44.1,9.1,44.1z"/>
</g>
</svg>
