<?xml version="1.0" encoding="utf-8"?>
<!-- Generator: Adobe Illustrator 25.1.0, SVG Export Plug-In . SVG Version: 6.00 Build 0)  -->
<svg version="1.1" id="Capa_1" xmlns="http://www.w3.org/2000/svg" xmlns:xlink="http://www.w3.org/1999/xlink" x="0px" y="0px"
	 viewBox="0 0 50 50" style="enable-background:new 0 0 50 50;" xml:space="preserve">
<g>
	<path d="M11.2,9.3H2.3c-0.8,0-1.4-0.6-1.4-1.4s0.6-1.4,1.4-1.4h8.9c0.8,0,1.4,0.6,1.4,1.4S12,9.3,11.2,9.3z"/>
	<path d="M16.3,14.4c-3.6,0-6.5-2.9-6.5-6.5c0-3.6,2.9-6.5,6.5-6.5s6.5,2.9,6.5,6.5C22.8,11.5,19.9,14.4,16.3,14.4z M16.3,4.2
		c-2,0-3.7,1.6-3.7,3.7s1.6,3.7,3.7,3.7s3.7-1.6,3.7-3.7S18.3,4.2,16.3,4.2z"/>
	<path d="M47.7,9.3H26.5c-0.8,0-1.4-0.6-1.4-1.4s0.6-1.4,1.4-1.4h21.2c0.8,0,1.4,0.6,1.4,1.4S48.4,9.3,47.7,9.3z"/>
	<path d="M35.3,31.5c-3.6,0-6.5-2.9-6.5-6.5s2.9-6.5,6.5-6.5s6.5,2.9,6.5,6.5S38.9,31.5,35.3,31.5z M35.3,21.3c-2,0-3.7,1.6-3.7,3.7
		s1.6,3.7,3.7,3.7S39,27,39,25S37.3,21.3,35.3,21.3z"/>
	<path d="M25.1,26.4H2.3c-0.8,0-1.4-0.6-1.4-1.4s0.6-1.4,1.4-1.4h22.7c0.8,0,1.4,0.6,1.4,1.4S25.9,26.4,25.1,26.4z"/>
	<path d="M47.7,26.4h-7.3c-0.8,0-1.4-0.6-1.4-1.4s0.6-1.4,1.4-1.4h7.3c0.8,0,1.4,0.6,1.4,1.4S48.4,26.4,47.7,26.4z"/>
	<path d="M14.7,48.6c-3.6,0-6.5-2.9-6.5-6.5c0-3.6,2.9-6.5,6.5-6.5s6.5,2.9,6.5,6.5C21.2,45.7,18.3,48.6,14.7,48.6z M14.7,38.5
		c-2,0-3.7,1.6-3.7,3.7s1.6,3.7,3.7,3.7s3.7-1.6,3.7-3.7S16.7,38.5,14.7,38.5z"/>
	<path d="M47.7,43.5H24.9c-0.8,0-1.4-0.6-1.4-1.4s0.6-1.4,1.4-1.4h22.7c0.8,0,1.4,0.6,1.4,1.4S48.4,43.5,47.7,43.5z"/>
	<path d="M9.6,43.5H2.3c-0.8,0-1.4-0.6-1.4-1.4c0-0.8,0.6-1.4,1.4-1.4h7.3c0.8,0,1.4,0.6,1.4,1.4C11,42.9,10.4,43.5,9.6,43.5z"/>
</g>
</svg>
