<?xml version="1.0" encoding="utf-8"?>
<!-- Generator: Adobe Illustrator 25.1.0, SVG Export Plug-In . SVG Version: 6.00 Build 0)  -->
<svg version="1.1" id="Capa_1" xmlns="http://www.w3.org/2000/svg" xmlns:xlink="http://www.w3.org/1999/xlink" x="0px" y="0px"
	 viewBox="0 0 50 50" style="enable-background:new 0 0 50 50;" xml:space="preserve">
<g>
	<path d="M48.5,11.8H35.3V8.9c0-3.3-2.7-6-6-6h-8.7c-3.3,0-6,2.7-6,6v2.9H1.5c-0.8,0-1.4,0.6-1.4,1.4v26.6c0,4,3.2,7.2,7.2,7.2h35.6
		c4,0,7.2-3.2,7.2-7.2V13.2C50,12.5,49.4,11.8,48.5,11.8z M28.3,30.9c0,1.8-1.5,3.3-3.3,3.3c-1.8,0-3.3-1.5-3.3-3.3v-3.3h6.7v3.3
		H28.3z M29.8,24.6h-9.6c-0.8,0-1.4,0.6-1.4,1.4v2.7c-8.6-1.7-15-7.3-15.8-14h44c-0.8,6.7-7.2,12.2-15.7,14.1v-2.7
		C31.3,25.4,30.5,24.6,29.8,24.6L29.8,24.6z M17.6,8.9c0-1.6,1.3-3,3-3h8.7c1.6,0,3,1.3,3,3v2.9H17.6V8.9L17.6,8.9z M47.1,39.8
		c0,2.4-2,4.3-4.3,4.3H7.2c-2.4,0-4.3-2-4.3-4.3V22.3c1.2,1.6,2.7,3.3,4.5,4.6c3.2,2.4,7.1,4,11.3,4.8c0.4,3.1,3.1,5.3,6.2,5.3
		s5.8-2.4,6.2-5.3c4.2-0.8,8.1-2.5,11.3-4.8c1.8-1.3,3.4-3,4.5-4.6v17.6H47.1z"/>
</g>
</svg>
