<?xml version="1.0" encoding="utf-8"?>
<!-- Generator: Adobe Illustrator 25.2.1, SVG Export Plug-In . SVG Version: 6.00 Build 0)  -->
<svg version="1.1" id="Layer_1" xmlns="http://www.w3.org/2000/svg" xmlns:xlink="http://www.w3.org/1999/xlink" x="0px" y="0px"
	 viewBox="0 0 150 150" style="enable-background:new 0 0 150 150;" xml:space="preserve">
<style type="text/css">
	.st0{stroke:#000000;stroke-width:3;stroke-miterlimit:10;}
</style>
<g>
	<path class="st0" d="M145.1,75c0,38.6-31.6,70.1-70.2,70c-38.6-0.1-70-31.6-69.9-70.3C5,36.3,36.4,5,75,4.9
		C113.6,4.9,145.1,36.4,145.1,75z M106.2,98.6c4.1,4.3,9.3,10.6,13.4,14.9c19.2-20.2,21.8-58-4.2-82.1C90.1,7.8,54.2,13,36.1,30.9
		c4.4,4.1,9.8,9.1,13.9,12.9c-2,2.4-3.7,4.3-5.9,6.9c-4.5-4.8-9.6-10.1-13.7-14.4c-19.3,20.5-21.4,57.7,3.4,81.5
		c24.5,23.5,60.5,20.1,80.3,1.3c-4.4-4.1-9.8-10.2-14.4-14.4C101.9,102.6,103.7,100.9,106.2,98.6z"/>
	<path d="M82.3,111.9L82.3,111.9L82.3,111.9v-7.9c9.4-1,18.4-6.9,18.4-18.2c0-15.2-14.2-17-24.5-18.3c-6.6-0.8-11.7-1.7-11.7-5.7
		c0-5.5,7.9-6.1,11.3-6.1c5,0,10.4,2.3,12.2,5.4l0.5,0.9l10.4-4.8l-0.5-1c-3.9-8-10.8-10.2-16.1-11.2V38H70.1v6.9
		c-11.3,1.6-18.1,8-18.1,17c0,14.7,13.3,16.2,23,17.2c8.7,1,12.7,3.2,12.7,6.8c0,6.8-9.4,7.4-12.3,7.4c-6.4,0-12.6-3.2-14.5-7.4
		l-0.4-1l-11.3,4.8l0.4,1c3.4,7.8,10.6,12.7,20.4,13.9v7.5L82.3,111.9L82.3,111.9z"/>
</g>
</svg>
