<?xml version="1.0" encoding="utf-8"?>
<!-- Generator: Adobe Illustrator 25.2.1, SVG Export Plug-In . SVG Version: 6.00 Build 0)  -->
<svg version="1.1" id="Layer_1" xmlns="http://www.w3.org/2000/svg" xmlns:xlink="http://www.w3.org/1999/xlink" x="0px" y="0px"
	 viewBox="0 0 512 512" style="enable-background:new 0 0 512 512;" xml:space="preserve">
<g>
	<path d="M397.2,315.4V72.8c0-38.3-31.2-69.5-69.5-69.5h-212c-38.3,0-69.5,31.2-69.5,69.5v298.7c0,38.3,31.2,69.5,69.5,69.5h157.1
		c13.1,39.3,50.3,67.8,94,67.8c54.6,0,99-44.4,99-99C465.8,365.7,436.9,328.3,397.2,315.4z M268.8,409.7c0,0.5,0,1.1,0,1.6H116.6
		c-21.9,0-39.9-17.9-39.9-39.9V72.5c0-21.9,17.9-39.9,39.9-39.9h212.2c21.9,0,39.9,17.9,39.9,39.9v238.1c-0.3,0-0.6,0-0.8,0
		C313.2,310.5,268.8,355,268.8,409.7z M367.7,485.8c-40.9,0-74.2-33.3-74.2-74.2s33.3-74.2,74.2-74.2s74.2,33.3,74.2,74.2
		C441.9,452.6,408.6,485.8,367.7,485.8z"/>
	<path d="M403.1,373.9c-5.8-5.8-15.2-5.8-20.9,0l-14.9,14.9l-14.9-14.9c-5.8-5.8-15.2-5.8-20.9,0c-5.8,5.8-5.8,15.2,0,20.9
		l14.9,14.9l-14.9,14.9c-5.8,5.8-5.8,15.2,0,20.9c2.9,2.9,6.7,4.3,10.5,4.3s7.6-1.4,10.5-4.3l14.9-14.9l14.9,14.9
		c2.9,2.9,6.7,4.3,10.5,4.3s7.6-1.4,10.5-4.3c5.8-5.8,5.8-15.2,0-20.9l-14.9-14.9l14.9-14.9C408.8,389,408.8,379.6,403.1,373.9z"/>
	<path d="M323.1,62.2H123.5c-8.2,0-14.8,6.6-14.8,14.8s6.6,14.8,14.8,14.8H323c8.2,0,14.8-6.6,14.8-14.8
		C337.9,68.9,331.2,62.2,323.1,62.2z"/>
	<path d="M123.5,142.7h169.9c8.2,0,14.8-6.6,14.8-14.8s-6.6-14.8-14.8-14.8H123.5c-8.2,0-14.8,6.6-14.8,14.8
		C108.7,136,115.4,142.7,123.5,142.7z"/>
	<path d="M322,163.9H123.5c-8.2,0-14.8,6.6-14.8,14.8s6.6,14.8,14.8,14.8H322c8.2,0,14.8-6.6,14.8-14.8S330.2,163.9,322,163.9z"/>
	<path d="M171.7,354.1h-48.2c-8.2,0-14.8,6.6-14.8,14.8c0,8.2,6.6,14.8,14.8,14.8h48.2c8.2,0,14.8-6.6,14.8-14.8
		S179.9,354.1,171.7,354.1z"/>
</g>
</svg>
